<svg width="13" height="12" viewBox="0 0 13 12" fill="none" xmlns="http://www.w3.org/2000/svg">
<path d="M5.67285 2.07349H2.03841C1.76301 2.07349 1.49888 2.18015 1.30414 2.37C1.1094 2.55986 1 2.81736 1 3.08586V10.1725C1 10.441 1.1094 10.6985 1.30414 10.8884C1.49888 11.0782 1.76301 11.1849 2.03841 11.1849H9.30729C9.5827 11.1849 9.84682 11.0782 10.0416 10.8884C10.2363 10.6985 10.3457 10.441 10.3457 10.1725V6.62919" stroke="black" stroke-opacity="0.5" stroke-width="1.2" stroke-linecap="round" stroke-linejoin="round"/>
<path d="M9.56665 1.31451C9.7732 1.11313 10.0533 1 10.3455 1C10.6376 1 10.9177 1.11313 11.1243 1.31451C11.3308 1.51588 11.4469 1.789 11.4469 2.07379C11.4469 2.35857 11.3308 2.6317 11.1243 2.83307L6.19181 7.64186L4.11499 8.14805L4.6342 6.1233L9.56665 1.31451Z" stroke="black" stroke-opacity="0.5" stroke-width="1.2" stroke-linecap="round" stroke-linejoin="round"/>
</svg>
