<svg width="40" height="40" viewBox="0 0 40 40" fill="none" xmlns="http://www.w3.org/2000/svg">
<path d="M17.02 2.84016L11.63 7.04016C10.73 7.74016 10 9.23016 10 10.3602V17.7702C10 20.0902 11.89 21.9902 14.21 21.9902H25.79C28.11 21.9902 30 20.0902 30 17.7802V10.5002C30 9.29016 29.19 7.74016 28.2 7.05016L22.02 2.72016C20.62 1.74016 18.37 1.79016 17.02 2.84016Z" stroke="#E85BFF" stroke-width="2" stroke-linecap="round" stroke-linejoin="round"/>
<path d="M20 17.9902V14.9902" stroke="#E85BFF" stroke-width="2" stroke-linecap="round" stroke-linejoin="round"/>
<path d="M5.46 37V29.44H6.564V32.62H10.152V29.44H11.256V37H10.152V33.556H6.564V37H5.46ZM18.2872 34.12C18.2872 34.592 18.2152 35.016 18.0712 35.392C17.9272 35.76 17.7272 36.072 17.4712 36.328C17.2232 36.584 16.9312 36.78 16.5952 36.916C16.2592 37.044 15.8952 37.108 15.5032 37.108C15.1112 37.108 14.7472 37.048 14.4112 36.928C14.0832 36.8 13.7952 36.616 13.5472 36.376C13.3072 36.128 13.1152 35.828 12.9712 35.476C12.8352 35.116 12.7672 34.704 12.7672 34.24C12.7672 33.768 12.8392 33.348 12.9832 32.98C13.1272 32.612 13.3232 32.304 13.5712 32.056C13.8272 31.8 14.1232 31.608 14.4592 31.48C14.7952 31.344 15.1592 31.276 15.5512 31.276C15.9432 31.276 16.3032 31.336 16.6312 31.456C16.9672 31.576 17.2552 31.756 17.4952 31.996C17.7432 32.236 17.9352 32.536 18.0712 32.896C18.2152 33.248 18.2872 33.656 18.2872 34.12ZM17.1832 34.18C17.1832 33.804 17.1352 33.484 17.0392 33.22C16.9432 32.956 16.8152 32.74 16.6552 32.572C16.5032 32.404 16.3272 32.284 16.1272 32.212C15.9272 32.132 15.7232 32.092 15.5152 32.092C15.3072 32.092 15.1032 32.124 14.9032 32.188C14.7032 32.252 14.5272 32.364 14.3752 32.524C14.2232 32.684 14.0992 32.9 14.0032 33.172C13.9152 33.436 13.8712 33.772 13.8712 34.18C13.8712 34.556 13.9192 34.88 14.0152 35.152C14.1112 35.416 14.2352 35.632 14.3872 35.8C14.5472 35.968 14.7272 36.092 14.9272 36.172C15.1272 36.252 15.3312 36.292 15.5392 36.292C15.7472 36.292 15.9512 36.26 16.1512 36.196C16.3512 36.124 16.5272 36.008 16.6792 35.848C16.8312 35.68 16.9512 35.464 17.0392 35.2C17.1352 34.928 17.1832 34.588 17.1832 34.18ZM20.7282 37H19.6722V31.36H20.4882L20.6442 32.14C20.9082 31.876 21.1922 31.668 21.4962 31.516C21.8002 31.356 22.1643 31.276 22.5883 31.276C22.9883 31.276 23.3163 31.36 23.5722 31.528C23.8282 31.688 24.0202 31.912 24.1482 32.2C24.4282 31.904 24.7362 31.676 25.0722 31.516C25.4082 31.356 25.7802 31.276 26.1882 31.276C26.7643 31.276 27.1963 31.44 27.4843 31.768C27.7803 32.088 27.9283 32.536 27.9283 33.112V37H26.8723V33.304C26.8723 32.928 26.7923 32.64 26.6322 32.44C26.4722 32.24 26.2083 32.14 25.8403 32.14C25.2962 32.14 24.7882 32.384 24.3162 32.872C24.3243 32.912 24.3283 32.952 24.3283 32.992C24.3283 33.032 24.3283 33.072 24.3283 33.112V37H23.2723V33.304C23.2723 32.928 23.1923 32.64 23.0323 32.44C22.8722 32.24 22.6082 32.14 22.2402 32.14C21.6962 32.14 21.1922 32.396 20.7282 32.908V37ZM34.4629 34.3H30.4189V34.348C30.4189 34.972 30.5869 35.452 30.9229 35.788C31.2669 36.124 31.7309 36.292 32.3149 36.292C32.6189 36.292 32.8869 36.268 33.1189 36.22C33.3589 36.172 33.6189 36.092 33.8989 35.98L34.1149 36.76C33.8829 36.864 33.6069 36.948 33.2869 37.012C32.9749 37.076 32.6389 37.108 32.2789 37.108C31.8709 37.108 31.4869 37.052 31.1269 36.94C30.7749 36.828 30.4629 36.656 30.1909 36.424C29.9189 36.184 29.7029 35.88 29.5429 35.512C29.3909 35.144 29.3149 34.704 29.3149 34.192C29.3149 33.752 29.3789 33.352 29.5069 32.992C29.6429 32.632 29.8309 32.328 30.0709 32.08C30.3109 31.824 30.5989 31.628 30.9349 31.492C31.2789 31.348 31.6629 31.276 32.0869 31.276C32.4469 31.276 32.7709 31.336 33.0589 31.456C33.3549 31.576 33.6069 31.744 33.8149 31.96C34.0229 32.176 34.1829 32.436 34.2949 32.74C34.4069 33.044 34.4629 33.38 34.4629 33.748V34.3ZM33.3709 33.544C33.3709 33.336 33.3429 33.144 33.2869 32.968C33.2389 32.784 33.1589 32.624 33.0469 32.488C32.9429 32.352 32.8069 32.244 32.6389 32.164C32.4709 32.084 32.2669 32.044 32.0269 32.044C31.5869 32.044 31.2269 32.184 30.9469 32.464C30.6749 32.744 30.5069 33.112 30.4429 33.568L33.3709 33.544Z" fill="#E85BFF"/>
</svg>
