<svg width="64" height="42" viewBox="0 0 64 42" fill="none" xmlns="http://www.w3.org/2000/svg">
<path d="M28.7271 23.9545C29.3296 23.9545 29.818 23.4661 29.818 22.8636C29.818 22.2611 29.3296 21.7727 28.7271 21.7727C28.1246 21.7727 27.6362 22.2611 27.6362 22.8636C27.6362 23.4661 28.1246 23.9545 28.7271 23.9545Z" stroke="white" stroke-opacity="0.8" stroke-width="2" stroke-linecap="round" stroke-linejoin="round"/>
<path d="M40.7276 23.9545C41.3301 23.9545 41.8185 23.4661 41.8185 22.8636C41.8185 22.2611 41.3301 21.7727 40.7276 21.7727C40.1251 21.7727 39.6367 22.2611 39.6367 22.8636C39.6367 23.4661 40.1251 23.9545 40.7276 23.9545Z" stroke="white" stroke-opacity="0.8" stroke-width="2" stroke-linecap="round" stroke-linejoin="round"/>
<path d="M20 1.04541H24.3636L27.2873 15.6527C27.387 16.1549 27.6603 16.6061 28.0591 16.9272C28.458 17.2483 28.9571 17.4189 29.4691 17.409H40.0727C40.5847 17.4189 41.0838 17.2483 41.4827 16.9272C41.8816 16.6061 42.1548 16.1549 42.2545 15.6527L44 6.49996H25.4545" stroke="white" stroke-opacity="0.8" stroke-width="2" stroke-linecap="round" stroke-linejoin="round"/>
<path d="M1.904 31.3946H3.344L4.928 36.2186C5.008 36.4506 5.084 36.6786 5.156 36.9026C5.228 37.1186 5.296 37.3386 5.36 37.5626H5.384C5.448 37.3386 5.512 37.1226 5.576 36.9146C5.648 36.7066 5.728 36.4746 5.816 36.2186L7.364 31.3946H8.804L9.464 38.9546H8.36L8.048 34.9466C8.016 34.5546 7.992 34.1666 7.976 33.7826C7.96 33.3906 7.944 32.9946 7.928 32.5946H7.904C7.792 32.9866 7.676 33.3786 7.556 33.7706C7.444 34.1626 7.324 34.5546 7.196 34.9466L5.864 38.9546H4.856L3.524 34.9346C3.388 34.5266 3.264 34.1386 3.152 33.7706C3.04 33.3946 2.928 33.0026 2.816 32.5946H2.792C2.776 32.9866 2.752 33.3786 2.72 33.7706C2.696 34.1626 2.668 34.5546 2.636 34.9466L2.348 38.9546H1.268L1.904 31.3946ZM11.2026 33.8186C11.3946 33.7226 11.5746 33.6386 11.7426 33.5666C11.9106 33.4866 12.0786 33.4226 12.2466 33.3746C12.4146 33.3266 12.5866 33.2906 12.7626 33.2666C12.9386 33.2426 13.1306 33.2306 13.3386 33.2306C13.6506 33.2306 13.9346 33.2666 14.1906 33.3386C14.4546 33.4026 14.6786 33.5146 14.8626 33.6746C15.0546 33.8346 15.2026 34.0466 15.3066 34.3106C15.4106 34.5666 15.4626 34.8906 15.4626 35.2826V38.9546H14.5866L14.4546 38.3306H14.4306C14.1826 38.5946 13.9106 38.7826 13.6146 38.8946C13.3186 39.0066 12.9906 39.0626 12.6306 39.0626C12.3586 39.0626 12.1066 39.0266 11.8746 38.9546C11.6506 38.8746 11.4546 38.7666 11.2866 38.6306C11.1186 38.4866 10.9866 38.3146 10.8906 38.1146C10.8026 37.9146 10.7586 37.6906 10.7586 37.4426C10.7586 36.8506 10.9906 36.4026 11.4546 36.0986C11.9266 35.7866 12.5466 35.6306 13.3146 35.6306H14.3946V35.1506C14.3946 34.7426 14.2906 34.4666 14.0826 34.3226C13.8746 34.1706 13.5946 34.0946 13.2426 34.0946C13.0346 34.0946 12.7946 34.1306 12.5226 34.2026C12.2586 34.2666 11.9546 34.3946 11.6106 34.5866L11.2026 33.8186ZM14.4066 36.3506L13.5186 36.3746C12.9186 36.3906 12.4906 36.4986 12.2346 36.6986C11.9866 36.8906 11.8626 37.1266 11.8626 37.4066C11.8626 37.5746 11.8906 37.7186 11.9466 37.8386C12.0026 37.9506 12.0746 38.0386 12.1626 38.1026C12.2586 38.1666 12.3666 38.2146 12.4866 38.2466C12.6146 38.2706 12.7466 38.2826 12.8826 38.2826C13.1466 38.2826 13.4146 38.2226 13.6866 38.1026C13.9586 37.9746 14.1986 37.7746 14.4066 37.5026V36.3506ZM17.0897 38.9546V33.3146H17.8817L18.0617 34.4426C18.1977 34.0826 18.4217 33.7906 18.7337 33.5666C19.0457 33.3426 19.4057 33.2306 19.8137 33.2306C20.0217 33.2306 20.1937 33.2466 20.3297 33.2786C20.4657 33.3106 20.5897 33.3506 20.7017 33.3986L20.4977 34.3226C20.4017 34.2746 20.2937 34.2346 20.1737 34.2026C20.0617 34.1706 19.9257 34.1546 19.7657 34.1546C19.5337 34.1546 19.3177 34.1946 19.1177 34.2746C18.9257 34.3546 18.7537 34.4746 18.6017 34.6346C18.4577 34.7946 18.3417 34.9946 18.2537 35.2346C18.1737 35.4666 18.1337 35.7346 18.1337 36.0386V38.9546H17.0897ZM22.7345 36.8906V38.9546H21.6905V30.4346H22.7345V35.7386L25.0025 33.3146H26.3105L23.9945 35.6906L26.4185 38.9546H25.1705L23.2985 36.3266L22.7345 36.8906ZM31.9457 36.2546H27.9017V36.3026C27.9017 36.9266 28.0697 37.4066 28.4057 37.7426C28.7497 38.0786 29.2137 38.2466 29.7977 38.2466C30.1017 38.2466 30.3697 38.2226 30.6017 38.1746C30.8417 38.1266 31.1017 38.0466 31.3817 37.9346L31.5977 38.7146C31.3657 38.8186 31.0897 38.9026 30.7697 38.9666C30.4577 39.0306 30.1217 39.0626 29.7617 39.0626C29.3537 39.0626 28.9697 39.0066 28.6097 38.8946C28.2577 38.7826 27.9457 38.6106 27.6737 38.3786C27.4017 38.1386 27.1857 37.8346 27.0257 37.4666C26.8737 37.0986 26.7977 36.6586 26.7977 36.1466C26.7977 35.7066 26.8617 35.3066 26.9897 34.9466C27.1257 34.5866 27.3137 34.2826 27.5537 34.0346C27.7937 33.7786 28.0817 33.5826 28.4177 33.4466C28.7617 33.3026 29.1457 33.2306 29.5697 33.2306C29.9297 33.2306 30.2537 33.2906 30.5417 33.4106C30.8377 33.5306 31.0897 33.6986 31.2977 33.9146C31.5057 34.1306 31.6657 34.3906 31.7777 34.6946C31.8897 34.9986 31.9457 35.3346 31.9457 35.7026V36.2546ZM30.8537 35.4986C30.8537 35.2906 30.8257 35.0986 30.7697 34.9226C30.7217 34.7386 30.6417 34.5786 30.5297 34.4426C30.4257 34.3066 30.2897 34.1986 30.1217 34.1186C29.9537 34.0386 29.7497 33.9986 29.5097 33.9986C29.0697 33.9986 28.7097 34.1386 28.4297 34.4186C28.1577 34.6986 27.9897 35.0666 27.9257 35.5226L30.8537 35.4986ZM36.2566 34.1066H34.6006V37.3826C34.6006 37.6626 34.6686 37.8506 34.8046 37.9466C34.9486 38.0426 35.1326 38.0906 35.3566 38.0906C35.5166 38.0906 35.6926 38.0746 35.8846 38.0426C36.0766 38.0026 36.2446 37.9586 36.3886 37.9106L36.5566 38.7146C36.3966 38.7786 36.1926 38.8346 35.9446 38.8826C35.6966 38.9306 35.4366 38.9546 35.1646 38.9546C34.6046 38.9546 34.1966 38.8346 33.9406 38.5946C33.6846 38.3466 33.5566 37.9906 33.5566 37.5266V34.1066H32.7166V33.3146H33.5566V31.5146H34.6006V33.3146H36.2566V34.1066ZM40.1037 39.0626C39.8477 39.0626 39.5997 39.0266 39.3597 38.9546C39.1277 38.8826 38.9277 38.7866 38.7597 38.6666V41.7146H37.7157V33.2306H38.5917L38.7477 33.9626C38.9637 33.7626 39.2077 33.5906 39.4797 33.4466C39.7517 33.3026 40.0717 33.2306 40.4397 33.2306C41.1917 33.2306 41.7837 33.4706 42.2157 33.9506C42.6477 34.4306 42.8637 35.1186 42.8637 36.0146C42.8637 36.5426 42.7837 36.9986 42.6237 37.3826C42.4717 37.7666 42.2637 38.0826 41.9997 38.3306C41.7437 38.5786 41.4477 38.7626 41.1117 38.8826C40.7837 39.0026 40.4477 39.0626 40.1037 39.0626ZM40.2117 34.0946C39.8757 34.0946 39.5837 34.1786 39.3357 34.3466C39.0877 34.5066 38.8957 34.6706 38.7597 34.8386V37.8506C38.9437 37.9866 39.1397 38.0866 39.3477 38.1506C39.5557 38.2146 39.7637 38.2466 39.9717 38.2466C40.1877 38.2466 40.4037 38.2106 40.6197 38.1386C40.8357 38.0586 41.0277 37.9306 41.1957 37.7546C41.3637 37.5786 41.4997 37.3506 41.6037 37.0706C41.7077 36.7906 41.7597 36.4466 41.7597 36.0386C41.7597 35.4386 41.6317 34.9666 41.3757 34.6226C41.1277 34.2706 40.7397 34.0946 40.2117 34.0946ZM44.2867 38.9546V30.4346H45.3187V38.9546H44.2867ZM47.1643 33.8186C47.3563 33.7226 47.5363 33.6386 47.7043 33.5666C47.8723 33.4866 48.0403 33.4226 48.2083 33.3746C48.3763 33.3266 48.5483 33.2906 48.7243 33.2666C48.9003 33.2426 49.0923 33.2306 49.3003 33.2306C49.6123 33.2306 49.8963 33.2666 50.1523 33.3386C50.4163 33.4026 50.6403 33.5146 50.8243 33.6746C51.0163 33.8346 51.1643 34.0466 51.2683 34.3106C51.3723 34.5666 51.4243 34.8906 51.4243 35.2826V38.9546H50.5483L50.4163 38.3306H50.3923C50.1443 38.5946 49.8723 38.7826 49.5763 38.8946C49.2803 39.0066 48.9523 39.0626 48.5923 39.0626C48.3203 39.0626 48.0683 39.0266 47.8363 38.9546C47.6123 38.8746 47.4163 38.7666 47.2483 38.6306C47.0803 38.4866 46.9483 38.3146 46.8523 38.1146C46.7643 37.9146 46.7203 37.6906 46.7203 37.4426C46.7203 36.8506 46.9523 36.4026 47.4163 36.0986C47.8883 35.7866 48.5083 35.6306 49.2763 35.6306H50.3563V35.1506C50.3563 34.7426 50.2523 34.4666 50.0443 34.3226C49.8363 34.1706 49.5563 34.0946 49.2043 34.0946C48.9963 34.0946 48.7563 34.1306 48.4843 34.2026C48.2203 34.2666 47.9163 34.3946 47.5723 34.5866L47.1643 33.8186ZM50.3683 36.3506L49.4803 36.3746C48.8803 36.3906 48.4523 36.4986 48.1963 36.6986C47.9483 36.8906 47.8243 37.1266 47.8243 37.4066C47.8243 37.5746 47.8523 37.7186 47.9083 37.8386C47.9643 37.9506 48.0363 38.0386 48.1243 38.1026C48.2203 38.1666 48.3283 38.2146 48.4483 38.2466C48.5763 38.2706 48.7083 38.2826 48.8443 38.2826C49.1083 38.2826 49.3763 38.2226 49.6483 38.1026C49.9203 37.9746 50.1603 37.7746 50.3683 37.5026V36.3506ZM55.7514 38.2466C56.0074 38.2466 56.2314 38.2186 56.4234 38.1626C56.6154 38.1066 56.8034 38.0346 56.9874 37.9466L57.2154 38.7386C56.7834 38.9546 56.2674 39.0626 55.6674 39.0626C55.2594 39.0626 54.8754 39.0026 54.5154 38.8826C54.1634 38.7626 53.8514 38.5826 53.5794 38.3426C53.3154 38.0946 53.1074 37.7906 52.9554 37.4306C52.8034 37.0626 52.7274 36.6346 52.7274 36.1466C52.7274 35.6986 52.7994 35.2946 52.9434 34.9346C53.0874 34.5746 53.2874 34.2706 53.5434 34.0226C53.7994 33.7666 54.1074 33.5706 54.4674 33.4346C54.8274 33.2986 55.2234 33.2306 55.6554 33.2306C55.9034 33.2306 56.1434 33.2506 56.3754 33.2906C56.6154 33.3226 56.8874 33.4066 57.1914 33.5426L56.9514 34.3466C56.5834 34.1386 56.1874 34.0346 55.7634 34.0346C55.1794 34.0346 54.7074 34.2186 54.3474 34.5866C53.9874 34.9466 53.8074 35.4546 53.8074 36.1106C53.8074 36.5186 53.8634 36.8586 53.9754 37.1306C54.0874 37.4026 54.2354 37.6226 54.4194 37.7906C54.6034 37.9506 54.8114 38.0666 55.0434 38.1386C55.2754 38.2106 55.5114 38.2466 55.7514 38.2466ZM62.9676 36.2546H58.9236V36.3026C58.9236 36.9266 59.0916 37.4066 59.4276 37.7426C59.7716 38.0786 60.2356 38.2466 60.8196 38.2466C61.1236 38.2466 61.3916 38.2226 61.6236 38.1746C61.8636 38.1266 62.1236 38.0466 62.4036 37.9346L62.6196 38.7146C62.3876 38.8186 62.1116 38.9026 61.7916 38.9666C61.4796 39.0306 61.1436 39.0626 60.7836 39.0626C60.3756 39.0626 59.9916 39.0066 59.6316 38.8946C59.2796 38.7826 58.9676 38.6106 58.6956 38.3786C58.4236 38.1386 58.2076 37.8346 58.0476 37.4666C57.8956 37.0986 57.8196 36.6586 57.8196 36.1466C57.8196 35.7066 57.8836 35.3066 58.0116 34.9466C58.1476 34.5866 58.3356 34.2826 58.5756 34.0346C58.8156 33.7786 59.1036 33.5826 59.4396 33.4466C59.7836 33.3026 60.1676 33.2306 60.5916 33.2306C60.9516 33.2306 61.2756 33.2906 61.5636 33.4106C61.8596 33.5306 62.1116 33.6986 62.3196 33.9146C62.5276 34.1306 62.6876 34.3906 62.7996 34.6946C62.9116 34.9986 62.9676 35.3346 62.9676 35.7026V36.2546ZM61.8756 35.4986C61.8756 35.2906 61.8476 35.0986 61.7916 34.9226C61.7436 34.7386 61.6636 34.5786 61.5516 34.4426C61.4476 34.3066 61.3116 34.1986 61.1436 34.1186C60.9756 34.0386 60.7716 33.9986 60.5316 33.9986C60.0916 33.9986 59.7316 34.1386 59.4516 34.4186C59.1796 34.6986 59.0116 35.0666 58.9476 35.5226L61.8756 35.4986Z" fill="white" fill-opacity="0.7"/>
</svg>
