<svg width="40" height="40" viewBox="0 0 40 40" fill="none" xmlns="http://www.w3.org/2000/svg">
<path d="M20.1202 12.78C20.0502 12.77 19.9602 12.77 19.8802 12.78C18.1202 12.72 16.7202 11.28 16.7202 9.50998C16.7202 7.69998 18.1802 6.22998 20.0002 6.22998C21.8102 6.22998 23.2802 7.69998 23.2802 9.50998C23.2702 11.28 21.8802 12.72 20.1202 12.78Z" stroke="white" stroke-opacity="0.8" stroke-width="1.5" stroke-linecap="round" stroke-linejoin="round"/>
<path d="M26.7398 19.3801C24.9598 21.0101 22.5998 22.0001 19.9998 22.0001C17.3998 22.0001 15.0398 21.0101 13.2598 19.3801C13.3598 18.4401 13.9598 17.5201 15.0298 16.8001C17.7698 14.9801 22.2498 14.9801 24.9698 16.8001C26.0398 17.5201 26.6398 18.4401 26.7398 19.3801Z" stroke="white" stroke-opacity="0.8" stroke-width="1.5" stroke-linecap="round" stroke-linejoin="round"/>
<path d="M20 22C25.5228 22 30 17.5228 30 12C30 6.47715 25.5228 2 20 2C14.4772 2 10 6.47715 10 12C10 17.5228 14.4772 22 20 22Z" stroke="white" stroke-opacity="0.8" stroke-width="1.5" stroke-linecap="round" stroke-linejoin="round"/>
<path d="M4.46 29.44H6.836C7.228 29.44 7.584 29.492 7.904 29.596C8.224 29.692 8.5 29.84 8.732 30.04C8.964 30.232 9.144 30.472 9.272 30.76C9.4 31.04 9.464 31.364 9.464 31.732C9.464 32.132 9.396 32.48 9.26 32.776C9.124 33.064 8.932 33.304 8.684 33.496C8.436 33.688 8.144 33.832 7.808 33.928C7.472 34.024 7.1 34.072 6.692 34.072H5.564V37H4.46V29.44ZM5.564 33.172H6.248C6.544 33.172 6.82 33.152 7.076 33.112C7.332 33.072 7.548 33 7.724 32.896C7.908 32.792 8.052 32.648 8.156 32.464C8.26 32.272 8.312 32.032 8.312 31.744C8.312 31.48 8.26 31.26 8.156 31.084C8.06 30.9 7.932 30.752 7.772 30.64C7.612 30.528 7.428 30.448 7.22 30.4C7.012 30.352 6.8 30.328 6.584 30.328H5.564V33.172ZM10.6732 37V31.36H11.4652L11.6452 32.488C11.7812 32.128 12.0052 31.836 12.3173 31.612C12.6293 31.388 12.9893 31.276 13.3973 31.276C13.6053 31.276 13.7773 31.292 13.9133 31.324C14.0493 31.356 14.1733 31.396 14.2853 31.444L14.0813 32.368C13.9853 32.32 13.8773 32.28 13.7573 32.248C13.6453 32.216 13.5093 32.2 13.3492 32.2C13.1173 32.2 12.9013 32.24 12.7013 32.32C12.5093 32.4 12.3372 32.52 12.1852 32.68C12.0412 32.84 11.9252 33.04 11.8372 33.28C11.7573 33.512 11.7173 33.78 11.7173 34.084V37H10.6732ZM20.1294 34.12C20.1294 34.592 20.0574 35.016 19.9134 35.392C19.7694 35.76 19.5694 36.072 19.3134 36.328C19.0654 36.584 18.7734 36.78 18.4374 36.916C18.1014 37.044 17.7374 37.108 17.3454 37.108C16.9534 37.108 16.5894 37.048 16.2534 36.928C15.9254 36.8 15.6374 36.616 15.3894 36.376C15.1494 36.128 14.9574 35.828 14.8134 35.476C14.6774 35.116 14.6094 34.704 14.6094 34.24C14.6094 33.768 14.6814 33.348 14.8254 32.98C14.9694 32.612 15.1654 32.304 15.4134 32.056C15.6694 31.8 15.9654 31.608 16.3014 31.48C16.6374 31.344 17.0014 31.276 17.3934 31.276C17.7854 31.276 18.1454 31.336 18.4734 31.456C18.8094 31.576 19.0974 31.756 19.3374 31.996C19.5854 32.236 19.7774 32.536 19.9134 32.896C20.0574 33.248 20.1294 33.656 20.1294 34.12ZM19.0254 34.18C19.0254 33.804 18.9774 33.484 18.8814 33.22C18.7854 32.956 18.6574 32.74 18.4974 32.572C18.3454 32.404 18.1694 32.284 17.9694 32.212C17.7694 32.132 17.5654 32.092 17.3574 32.092C17.1494 32.092 16.9454 32.124 16.7454 32.188C16.5454 32.252 16.3694 32.364 16.2174 32.524C16.0654 32.684 15.9414 32.9 15.8454 33.172C15.7574 33.436 15.7134 33.772 15.7134 34.18C15.7134 34.556 15.7614 34.88 15.8574 35.152C15.9534 35.416 16.0774 35.632 16.2294 35.8C16.3894 35.968 16.5694 36.092 16.7694 36.172C16.9694 36.252 17.1734 36.292 17.3814 36.292C17.5894 36.292 17.7934 36.26 17.9934 36.196C18.1934 36.124 18.3694 36.008 18.5214 35.848C18.6734 35.68 18.7934 35.464 18.8814 35.2C18.9774 34.928 19.0254 34.588 19.0254 34.18ZM25.1864 37V32.152H22.7984V37H21.7544V32.152H20.9264V31.36H21.7544V30.724C21.7544 30.388 21.8104 30.08 21.9224 29.8C22.0344 29.512 22.1904 29.268 22.3904 29.068C22.5984 28.86 22.8464 28.7 23.1344 28.588C23.4304 28.476 23.7584 28.42 24.1184 28.42C24.3424 28.42 24.5944 28.452 24.8744 28.516C25.1624 28.58 25.4024 28.66 25.5944 28.756L25.3784 29.488C25.2184 29.424 25.0464 29.376 24.8624 29.344C24.6784 29.304 24.5064 29.284 24.3464 29.284C23.8424 29.284 23.4584 29.4 23.1944 29.632C22.9304 29.856 22.7984 30.256 22.7984 30.832V31.36H26.2424V37H25.1864ZM27.9671 37V28.48H28.9991V37H27.9671ZM35.5848 34.3H31.5408V34.348C31.5408 34.972 31.7088 35.452 32.0448 35.788C32.3888 36.124 32.8528 36.292 33.4368 36.292C33.7408 36.292 34.0088 36.268 34.2408 36.22C34.4808 36.172 34.7408 36.092 35.0208 35.98L35.2368 36.76C35.0048 36.864 34.7288 36.948 34.4088 37.012C34.0968 37.076 33.7608 37.108 33.4008 37.108C32.9928 37.108 32.6088 37.052 32.2488 36.94C31.8968 36.828 31.5848 36.656 31.3128 36.424C31.0408 36.184 30.8248 35.88 30.6648 35.512C30.5128 35.144 30.4368 34.704 30.4368 34.192C30.4368 33.752 30.5008 33.352 30.6288 32.992C30.7648 32.632 30.9528 32.328 31.1928 32.08C31.4328 31.824 31.7208 31.628 32.0568 31.492C32.4008 31.348 32.7848 31.276 33.2088 31.276C33.5688 31.276 33.8928 31.336 34.1808 31.456C34.4768 31.576 34.7288 31.744 34.9368 31.96C35.1448 32.176 35.3048 32.436 35.4168 32.74C35.5288 33.044 35.5848 33.38 35.5848 33.748V34.3ZM34.4928 33.544C34.4928 33.336 34.4648 33.144 34.4088 32.968C34.3608 32.784 34.2808 32.624 34.1688 32.488C34.0648 32.352 33.9288 32.244 33.7608 32.164C33.5928 32.084 33.3888 32.044 33.1488 32.044C32.7088 32.044 32.3488 32.184 32.0688 32.464C31.7968 32.744 31.6288 33.112 31.5648 33.568L34.4928 33.544Z" fill="white" fill-opacity="0.7"/>
</svg>
